<?xml version="1.0" standalone="no"?>
<!DOCTYPE svg PUBLIC "-//W3C//DTD SVG 20010904//EN"
 "http://www.w3.org/TR/2001/REC-SVG-20010904/DTD/svg10.dtd">
<svg version="1.0" xmlns="http://www.w3.org/2000/svg"
 width="628.000000pt" height="283.000000pt" viewBox="0 0 628.000000 283.000000"
 preserveAspectRatio="xMidYMid meet">
<metadata>
Created by potrace 1.16, written by Peter Selinger 2001-2019
</metadata>
<g transform="translate(0.000000,283.000000) scale(0.100000,-0.100000)"
fill="#000000" stroke="none">
<path d="M846 2039 c-59 -14 -156 -64 -203 -104 -23 -19 -60 -63 -82 -97 l-41
-62 -44 47 c-24 26 -49 61 -56 78 -12 27 -11 33 9 52 18 19 33 22 99 22 65 0
77 3 80 18 3 14 -4 17 -40 18 -180 6 -226 -39 -165 -157 36 -69 224 -214 397
-307 153 -82 350 -158 500 -193 86 -20 209 -20 248 0 52 27 57 80 12 148 -40
61 -67 85 -81 71 -8 -8 1 -26 30 -65 42 -56 52 -97 27 -117 -18 -15 -141 -27
-149 -14 -3 5 3 38 14 74 17 51 20 82 16 156 -4 79 -9 102 -40 167 -63 132
-173 224 -312 260 -65 17 -158 19 -219 5z m259 -99 c106 -40 97 -189 -13 -220
-30 -8 -44 -6 -78 10 -131 64 -45 262 91 210z m-331 -64 c46 -19 66 -52 66
-106 0 -54 -31 -94 -84 -108 -49 -14 -82 -4 -116 35 -36 40 -40 93 -11 137 36
54 83 68 145 42z m520 -243 c69 -51 58 -161 -20 -198 -41 -19 -58 -19 -100 1
-86 41 -85 172 1 210 37 17 86 12 119 -13z"/>
<path d="M483 1662 c-5 -15 -7 -65 -7 -112 4 -190 99 -334 280 -420 131 -63
312 -48 438 35 64 43 86 62 114 102 l22 32 -53 11 c-47 9 -137 35 -192 55 -11
4 -15 3 -9 -2 19 -14 34 -51 34 -83 0 -69 -68 -129 -133 -116 -112 23 -133
172 -32 221 20 9 35 18 33 19 -2 2 -46 23 -99 48 l-95 45 14 -41 c13 -36 13
-45 -1 -78 -19 -46 -57 -71 -107 -71 -78 0 -133 71 -111 143 13 44 35 65 87
84 21 8 34 15 28 15 -7 1 -55 32 -108 71 l-96 69 -7 -27z"/>
<path d="M5143 1643 c4 -19 0 -53 -10 -83 -15 -46 -15 -54 1 -102 19 -64 10
-111 -30 -152 -39 -39 -93 -50 -204 -41 -52 4 -113 6 -135 4 -50 -4 -215 -4
-275 0 -40 3 -97 4 -182 3 -56 -1 -129 -1 -145 -1 -18 1 -87 1 -153 1 -19 0
-57 -1 -83 -2 -27 0 -58 5 -69 12 -18 12 -29 11 -77 -5 -64 -22 -139 -19 -191
8 -21 11 -35 13 -43 7 -25 -21 -85 -30 -129 -21 -26 6 -61 6 -84 1 -21 -4 -55
-5 -74 -1 -19 4 -53 4 -75 0 -22 -4 -56 -3 -75 2 -45 13 -136 13 -180 0 -19
-5 -50 -6 -68 -2 -19 4 -50 2 -70 -3 -22 -6 -74 -8 -127 -3 -101 8 -122 8
-183 5 -23 -1 -56 3 -72 10 -24 10 -36 10 -60 0 -16 -7 -49 -11 -72 -10 -50 3
-81 3 -143 0 -28 -1 -56 5 -71 14 -22 15 -27 15 -55 0 -46 -23 -126 -28 -181
-11 -56 17 -54 6 3 -24 60 -30 125 -35 195 -13 32 9 61 17 64 16 3 -1 23 -8
46 -16 30 -11 51 -12 83 -5 27 6 55 6 78 0 26 -8 47 -6 80 5 36 13 51 13 74 4
16 -7 48 -11 71 -10 60 3 80 2 188 -5 53 -4 111 -3 130 2 19 5 51 6 70 2 22
-5 50 -2 79 8 45 15 95 14 163 -5 23 -6 53 -6 76 -1 20 4 54 4 75 0 21 -5 55
-5 78 0 23 5 50 7 61 3 34 -10 105 -6 133 8 23 13 33 12 83 -5 64 -21 140 -19
188 6 26 13 33 13 58 0 17 -9 50 -15 78 -13 26 1 59 1 73 1 14 0 48 0 75 0 28
0 62 0 78 0 15 0 47 0 72 1 106 1 200 0 250 -3 61 -3 236 -3 285 0 22 2 84 0
137 -4 115 -9 174 7 209 56 18 25 20 38 15 87 -10 88 -10 134 1 172 11 42 1
96 -22 119 -17 15 -17 14 -12 -16z"/>
</g>
</svg>
