<?xml version="1.0" encoding="UTF-8"?>
<svg version="1.1" xmlns="http://www.w3.org/2000/svg" width="525" height="546">
<path d="M0 0 C173.25 0 346.5 0 525 0 C525 180.18 525 360.36 525 546 C351.75 546 178.5 546 0 546 C0 365.82 0 185.64 0 0 Z " fill="#FEFEFE" transform="translate(0,0)"/>
<path d="M0 0 C0.92683594 -0.00515625 1.85367188 -0.0103125 2.80859375 -0.015625 C5.72304176 0.26548488 7.91140497 1.03752097 10.5625 2.25 C10.5625 2.91 10.5625 3.57 10.5625 4.25 C12.89488236 4.50124826 12.89488236 4.50124826 15.5625 4.25 C16.33787109 3.51910156 16.33787109 3.51910156 17.12890625 2.7734375 C20.96208061 0.37385804 24.81364432 0.67779598 29.25 0.6875 C30.1481543 0.68556641 31.04630859 0.68363281 31.97167969 0.68164062 C38.83149781 0.84657614 43.66351503 2.16957114 48.5625 7.25 C49.34625 6.445625 50.13 5.64125 50.9375 4.8125 C55.42212534 0.43465146 59.11761494 0.86929548 65.20703125 0.8828125 C69.92699974 1.39931662 72.98649594 3.22498146 76.5625 6.25 C76.871875 5.610625 77.18125 4.97125 77.5 4.3125 C78.5625 2.25 78.5625 2.25 79.5625 1.25 C83.99401088 0.99541383 88.43704869 1.06476773 92.875 1.0625 C94.74961914 1.04413086 94.74961914 1.04413086 96.66210938 1.02539062 C97.86287109 1.02345703 99.06363281 1.02152344 100.30078125 1.01953125 C101.40462158 1.01542236 102.50846191 1.01131348 103.64575195 1.00708008 C106.50024344 1.24481499 108.14535783 1.76904645 110.5625 3.25 C111.2225 2.59 111.8825 1.93 112.5625 1.25 C116.47878014 0.73956988 120.4292571 0.83320652 124.375 0.8125 C125.46876953 0.77962891 126.56253906 0.74675781 127.68945312 0.71289062 C135.77601182 0.65868456 135.77601182 0.65868456 139.7421875 3.640625 C143.73991474 9.37127263 144.1105983 14.36690509 143.5625 21.25 C143.2325 21.58 142.9025 21.91 142.5625 22.25 C142.4645943 23.74738124 142.43275136 25.24942892 142.4375 26.75 C142.43363281 27.97203125 142.43363281 27.97203125 142.4296875 29.21875 C142.3379822 31.24530377 142.3379822 31.24530377 143.5625 32.25 C143.8359375 34.140625 143.8359375 34.140625 143.9375 36.5 C143.98648437 37.26828125 144.03546875 38.0365625 144.0859375 38.828125 C143.24608136 42.71402653 141.80978945 43.9733026 138.5625 46.25 C134.81368587 46.87980077 131.16417641 46.76688007 127.375 46.625 C126.36501953 46.61082031 125.35503906 46.59664063 124.31445312 46.58203125 C116.9302047 46.43385235 116.9302047 46.43385235 114.5625 45.25 C114.5625 44.59 114.5625 43.93 114.5625 43.25 C113.81355469 43.73855469 113.06460937 44.22710937 112.29296875 44.73046875 C107.43638723 47.15376743 102.17668542 46.6451838 96.875 46.5625 C95.83021484 46.56572266 94.78542969 46.56894531 93.70898438 46.57226562 C85.96360692 46.51740461 85.96360692 46.51740461 82.5625 44.25 C80.27852968 44.59605611 78.62840963 45.21704519 76.5625 46.25 C70.02916667 46.48333333 70.02916667 46.48333333 67.5625 45.25 C67.5625 44.59 67.5625 43.93 67.5625 43.25 C66.2425 43.25 64.9225 43.25 63.5625 43.25 C63.2325 44.24 62.9025 45.23 62.5625 46.25 C61.10426788 46.2770043 59.64589325 46.29639787 58.1875 46.3125 C56.96933594 46.32990234 56.96933594 46.32990234 55.7265625 46.34765625 C53.5625 46.25 53.5625 46.25 51.5625 45.25 C51.5625 44.59 51.5625 43.93 51.5625 43.25 C50.5725 43.9925 50.5725 43.9925 49.5625 44.75 C45.50081003 46.78084499 43.08911957 46.60925552 38.5625 46.25 C36.0625 45.25 36.0625 45.25 34.5625 44.25 C33.5725 44.91 32.5825 45.57 31.5625 46.25 C29.40625 46.55078125 29.40625 46.55078125 27.0625 46.5625 C25.90234375 46.58763672 25.90234375 46.58763672 24.71875 46.61328125 C22.06197074 46.1656717 21.17377471 45.37254457 19.5625 43.25 C19.5625 42.59 19.5625 41.93 19.5625 41.25 C18.96824219 41.6109375 18.37398437 41.971875 17.76171875 42.34375 C11.25165676 45.98857475 5.99914597 47.32215448 -1.4375 46.25 C-4.03312413 45.49053961 -6.01953438 44.53300217 -8.4375 43.25 C-9.6440625 42.6621875 -9.6440625 42.6621875 -10.875 42.0625 C-11.390625 41.794375 -11.90625 41.52625 -12.4375 41.25 C-13.0975 42.075 -13.7575 42.9 -14.4375 43.75 C-17.8580311 46.60044259 -19.22980417 46.88379975 -23.5 46.625 C-26.24021804 46.09463522 -28.22318011 44.91073991 -30.4375 43.25 C-30.7675 44.24 -31.0975 45.23 -31.4375 46.25 C-33.04129341 46.30416188 -34.64561406 46.34286638 -36.25 46.375 C-37.14332031 46.39820313 -38.03664063 46.42140625 -38.95703125 46.4453125 C-41.4375 46.25 -41.4375 46.25 -44.4375 44.25 C-46.11049959 44.90061095 -47.77609237 45.57033324 -49.4375 46.25 C-53.125 46.5 -53.125 46.5 -56.4375 46.25 C-57.0975 45.59 -57.7575 44.93 -58.4375 44.25 C-61.41925787 43.66908723 -61.41925787 43.66908723 -64.8125 43.4375 C-65.95460938 43.32792969 -67.09671875 43.21835937 -68.2734375 43.10546875 C-71.83335776 43.26808239 -72.80844635 43.99074731 -75.4375 46.25 C-78.88677034 46.53157309 -81.14702793 46.34682402 -84.4375 45.25 C-84.7675 45.58 -85.0975 45.91 -85.4375 46.25 C-89.22174065 46.53006266 -93.01912732 46.48180637 -96.8125 46.5 C-97.87984375 46.520625 -98.9471875 46.54125 -100.046875 46.5625 C-101.07039063 46.56765625 -102.09390625 46.5728125 -103.1484375 46.578125 C-104.08993652 46.5874707 -105.03143555 46.59681641 -106.00146484 46.60644531 C-108.87166489 46.18647216 -109.57531097 45.37841674 -111.4375 43.25 C-112.0975 43.25 -112.7575 43.25 -113.4375 43.25 C-113.7675 44.24 -114.0975 45.23 -114.4375 46.25 C-122.14714833 47.02096483 -122.14714833 47.02096483 -125.30078125 45.13671875 C-126.72054721 43.88605643 -128.0831975 42.57127074 -129.4375 41.25 C-130.0975 41.25 -130.7575 41.25 -131.4375 41.25 C-131.994375 41.91 -132.55125 42.57 -133.125 43.25 C-135.4375 45.25 -135.4375 45.25 -138.875 45.5625 C-141.81468165 45.30463319 -144.55585153 44.84328057 -147.4375 44.25 C-147.7675 44.58 -148.0975 44.91 -148.4375 45.25 C-153.48131205 46.00765417 -157.30573892 45.78633624 -161.5 42.75 C-162.469375 41.925 -163.43875 41.1 -164.4375 40.25 C-164.4375 40.91 -164.4375 41.57 -164.4375 42.25 C-170.60573502 45.90525038 -175.27455512 47.18786512 -182.4375 46.25 C-188.68047449 44.48115723 -191.79214691 41.36751492 -195.4375 36.25 C-195.92734375 35.60160156 -196.4171875 34.95320313 -196.921875 34.28515625 C-201.28788432 27.69935006 -201.46803458 20.9553732 -200.4375 13.25 C-199.42822151 10.50906603 -198.50567027 9.43306862 -196.4375 7.25 C-195.839375 6.5075 -195.24125 5.765 -194.625 5 C-188.68786865 0.25029492 -180.68541017 0.57418135 -173.4375 1.25 C-170.82904025 2.00715359 -168.83632666 2.9415491 -166.4375 4.25 C-165.8909375 3.76015625 -165.344375 3.2703125 -164.78125 2.765625 C-161.92268983 0.91708942 -160.30958172 0.90736039 -156.9375 1 C-155.52984375 1.02320313 -155.52984375 1.02320313 -154.09375 1.046875 C-151.4375 1.25 -151.4375 1.25 -149.21875 1.828125 C-147.34773328 2.4723292 -147.34773328 2.4723292 -145.4375 1.25 C-140.48136466 0.71491282 -136.66517348 0.43155101 -132.4375 3.25 C-131.4475 4.24 -131.4475 4.24 -130.4375 5.25 C-129.7775 5.25 -129.1175 5.25 -128.4375 5.25 C-128.1075 3.93 -127.7775 2.61 -127.4375 1.25 C-121.95654631 1.22526645 -116.47562517 1.20712404 -110.99462891 1.19506836 C-109.13036534 1.19004208 -107.2661057 1.18322008 -105.40185547 1.17456055 C-102.72101876 1.16242037 -100.0402342 1.15675461 -97.359375 1.15234375 C-96.52694275 1.14718246 -95.6945105 1.14202118 -94.83685303 1.13670349 C-94.05634583 1.13662796 -93.27583862 1.13655243 -92.47167969 1.13647461 C-91.78773132 1.134254 -91.10378296 1.13203339 -90.39910889 1.12974548 C-88.4375 1.25 -88.4375 1.25 -86.24786377 1.81959534 C-85.65044373 1.96162888 -85.05302368 2.10366241 -84.4375 2.25 C-84.1075 1.92 -83.7775 1.59 -83.4375 1.25 C-78.43813575 0.685257 -74.61846607 0.49418172 -70.3125 3.25 C-69.69375 3.91 -69.075 4.57 -68.4375 5.25 C-65.94388429 4.04618552 -63.75606917 2.79571278 -61.4375 1.25 C-59.0625 1.01953125 -59.0625 1.01953125 -56.4375 1.0625 C-55.57125 1.06894531 -54.705 1.07539063 -53.8125 1.08203125 C-51.4375 1.25 -51.4375 1.25 -48.4375 2.25 C-47.4475 3.735 -47.4475 3.735 -46.4375 5.25 C-45.4475 5.58 -44.4575 5.91 -43.4375 6.25 C-43.1075 5.26 -42.7775 4.27 -42.4375 3.25 C-37.7346586 0.04645895 -31.86234261 0.53364258 -26.4375 1.25 C-24.07311681 2.3444806 -22.19634851 3.54564591 -20.15625 5.15625 C-18.2146008 6.60791699 -18.2146008 6.60791699 -14.4375 6.25 C-12.7300002 4.96937515 -11.06376404 3.63232443 -9.4375 2.25 C-6.22508954 0.27419486 -3.7492348 -0.02080019 0 0 Z " fill="#FCA733" transform="translate(363.4375,290.75)"/>
<path d="M0 0 C173.25 0 346.5 0 525 0 C525 1.65 525 3.3 525 5 C352.74 5 180.48 5 3 5 C3 177.26 3 349.52 3 527 C175.26 527 347.52 527 525 527 C525 533.27 525 539.54 525 546 C351.75 546 178.5 546 0 546 C0 365.82 0 185.64 0 0 Z " fill="#E9E9E9" transform="translate(0,0)"/>
<path d="M0 0 C12.77518695 7.75875228 21.33170222 18.56772358 24.91210938 33.21484375 C25.94658675 43.766513 24.2585733 52.36588273 21.22460938 62.40234375 C23.14158875 62.26068018 25.05818661 62.11384791 26.97460938 61.96484375 C28.575625 61.84302734 28.575625 61.84302734 30.20898438 61.71875 C32.661409 61.46143602 34.86382229 61.08422157 37.22460938 60.40234375 C35.79776132 56.04670231 34.62626131 52.57498368 31.53710938 49.15234375 C29.22460938 46.40234375 29.22460938 46.40234375 29.22460938 42.40234375 C32.69732521 42.67602538 33.98907077 43.16105028 36.46289062 45.6953125 C37.14738281 46.65050781 37.831875 47.60570312 38.53710938 48.58984375 C39.23449219 49.53214844 39.931875 50.47445312 40.65039062 51.4453125 C42.73426341 55.35968396 42.80802582 58.36038619 41.59960938 62.58984375 C39.3958666 65.4947774 37.72521301 66.21569845 34.22460938 67.40234375 C0.16539235 71.01838688 -39.3637089 49.3576439 -65.00341797 28.83813477 C-65.58816895 28.36432373 -66.17291992 27.8905127 -66.77539062 27.40234375 C-67.39236816 26.91241943 -68.0093457 26.42249512 -68.64501953 25.91772461 C-74.38625678 21.21930842 -80.09724874 14.78103076 -81.06054688 7.140625 C-80.69738741 4.10155366 -79.93911156 2.56606468 -77.77539062 0.40234375 C-70.35077518 -1.60653163 -63.33038213 -1.83453539 -55.77539062 -0.59765625 C-56.10539062 0.72234375 -56.43539062 2.04234375 -56.77539062 3.40234375 C-57.979375 3.45132812 -59.18335938 3.5003125 -60.42382812 3.55078125 C-61.9993726 3.62580718 -63.57489229 3.70135508 -65.15039062 3.77734375 C-65.94445312 3.80828125 -66.73851562 3.83921875 -67.55664062 3.87109375 C-72.14206438 3.92050796 -72.14206438 3.92050796 -75.77539062 6.40234375 C-75.59164272 11.09190981 -73.34720506 13.40394822 -70.21289062 16.71484375 C-68.97345703 18.03935547 -68.97345703 18.03935547 -67.70898438 19.390625 C-67.07089844 20.05449219 -66.4328125 20.71835937 -65.77539062 21.40234375 C-65.43507813 20.84546875 -65.09476563 20.28859375 -64.74414062 19.71484375 C-50.95659695 -1.99320374 -23.8627221 -13.34412917 0 0 Z " fill="#FEB534" transform="translate(117.775390625,271.59765625)"/>
<path d="M0 0 C2.60980557 1.66078536 5.21943292 3.32184067 7.828125 4.984375 C9.91844423 6.31270594 12.01212819 7.63575892 14.109375 8.953125 C15.08390625 9.56671875 16.0584375 10.1803125 17.0625 10.8125 C17.96097656 11.37582031 18.85945313 11.93914062 19.78515625 12.51953125 C22 14 22 14 24 16 C23.38511719 16.06058594 22.77023438 16.12117188 22.13671875 16.18359375 C21.32847656 16.26738281 20.52023438 16.35117187 19.6875 16.4375 C18.88699219 16.51871094 18.08648437 16.59992188 17.26171875 16.68359375 C14.83912821 16.95265693 14.83912821 16.95265693 12 18 C10.11557549 20.85480922 9.74882702 23.11954351 9.8125 26.5 C9.81894531 27.2528125 9.82539062 28.005625 9.83203125 28.78125 C10.00041253 31.00544918 10.24201441 32.899558 11 35 C16.3760418 37.62245942 22.33902101 37.886993 28 36 C30.02723784 32.98945078 30.24683328 30.51367848 30.1875 26.9375 C30.17783203 25.65166016 30.17783203 25.65166016 30.16796875 24.33984375 C30.08590034 21.84522032 30.08590034 21.84522032 29 19 C33.54918854 20.42815261 37.85178874 22.22208684 42.1875 24.1875 C56.08863279 30.35725972 70.20736681 35.44003895 85 39 C76.91282941 50.67159419 67.79114798 56.67804465 54 60 C38.5514161 62.26467469 27.43328018 58.94968495 14.671875 50.44921875 C6.47506656 44.12342093 -0.21858773 32.13178228 -2 22 C-2.11940838 19.56462444 -2.17524739 17.12577037 -2.1875 14.6875 C-2.20167969 13.41261719 -2.21585938 12.13773437 -2.23046875 10.82421875 C-1.99001075 6.83424616 -1.2354171 3.77461431 0 0 Z " fill="#FEC143" transform="translate(49,303)"/>
<path d="M0 0 C0.66 0.33 1.32 0.66 2 1 C2.39754895 5.05499925 2.48361685 7.27872595 0.1796875 10.71484375 C-4.50115829 14.07884226 -8.57587151 13.58511908 -14.1875 13.375 C-15.19748047 13.36082031 -16.20746094 13.34664063 -17.24804688 13.33203125 C-24.6322953 13.18385235 -24.6322953 13.18385235 -27 12 C-27 11.34 -27 10.68 -27 10 C-27.74894531 10.48855469 -28.49789063 10.97710937 -29.26953125 11.48046875 C-34.12611277 13.90376743 -39.38581458 13.3951838 -44.6875 13.3125 C-45.73228516 13.31572266 -46.77707031 13.31894531 -47.85351562 13.32226562 C-55.59889308 13.26740461 -55.59889308 13.26740461 -59 11 C-61.28397032 11.34605611 -62.93409037 11.96704519 -65 13 C-71.53333333 13.23333333 -71.53333333 13.23333333 -74 12 C-74 11.34 -74 10.68 -74 10 C-75.32 10 -76.64 10 -78 10 C-78.33 10.99 -78.66 11.98 -79 13 C-80.45823212 13.0270043 -81.91660675 13.04639787 -83.375 13.0625 C-84.18710937 13.07410156 -84.99921875 13.08570313 -85.8359375 13.09765625 C-88 13 -88 13 -90 12 C-90 11.34 -90 10.68 -90 10 C-90.99 10.7425 -90.99 10.7425 -92 11.5 C-96.06168997 13.53084499 -98.47338043 13.35925552 -103 13 C-105.5 12 -105.5 12 -107 11 C-107.99 11.66 -108.98 12.32 -110 13 C-112.15625 13.30078125 -112.15625 13.30078125 -114.5 13.3125 C-115.66015625 13.33763672 -115.66015625 13.33763672 -116.84375 13.36328125 C-119.50052926 12.9156717 -120.38872529 12.12254457 -122 10 C-122 9.34 -122 8.68 -122 8 C-122.59425781 8.3609375 -123.18851563 8.721875 -123.80078125 9.09375 C-130.31084324 12.73857475 -135.56335403 14.07215448 -143 13 C-145.59562413 12.24053961 -147.58203438 11.28300217 -150 10 C-150.804375 9.608125 -151.60875 9.21625 -152.4375 8.8125 C-152.953125 8.544375 -153.46875 8.27625 -154 8 C-154.99 9.2375 -154.99 9.2375 -156 10.5 C-159.4205311 13.35044259 -160.79230417 13.63379975 -165.0625 13.375 C-167.80271804 12.84463522 -169.78568011 11.66073991 -172 10 C-172.33 10.99 -172.66 11.98 -173 13 C-174.60379341 13.05416188 -176.20811406 13.09286638 -177.8125 13.125 C-178.70582031 13.14820313 -179.59914063 13.17140625 -180.51953125 13.1953125 C-183 13 -183 13 -186 11 C-187.67299959 11.65061095 -189.33859237 12.32033324 -191 13 C-194.6875 13.25 -194.6875 13.25 -198 13 C-198.99 12.01 -198.99 12.01 -200 11 C-202.98175787 10.41908723 -202.98175787 10.41908723 -206.375 10.1875 C-207.51710938 10.07792969 -208.65921875 9.96835937 -209.8359375 9.85546875 C-213.39585776 10.01808239 -214.37094635 10.74074731 -217 13 C-220.44927034 13.28157309 -222.70952793 13.09682402 -226 12 C-226.33 12.33 -226.66 12.66 -227 13 C-230.78424065 13.28006266 -234.58162732 13.23180637 -238.375 13.25 C-239.44234375 13.270625 -240.5096875 13.29125 -241.609375 13.3125 C-242.63289063 13.31765625 -243.65640625 13.3228125 -244.7109375 13.328125 C-245.65243652 13.3374707 -246.59393555 13.34681641 -247.56396484 13.35644531 C-250.43416489 12.93647216 -251.13781097 12.12841674 -253 10 C-253.66 10 -254.32 10 -255 10 C-255.33 10.99 -255.66 11.98 -256 13 C-263.70964833 13.77096483 -263.70964833 13.77096483 -266.86328125 11.88671875 C-268.28304721 10.63605643 -269.6456975 9.32127074 -271 8 C-271.66 8 -272.32 8 -273 8 C-273.556875 8.66 -274.11375 9.32 -274.6875 10 C-277 12 -277 12 -280.4375 12.3125 C-283.37718165 12.05463319 -286.11835153 11.59328057 -289 11 C-289.33 11.33 -289.66 11.66 -290 12 C-295.04381205 12.75765417 -298.86823892 12.53633624 -303.0625 9.5 C-304.031875 8.675 -305.00125 7.85 -306 7 C-306 7.66 -306 8.32 -306 9 C-312.16823502 12.65525038 -316.83705512 13.93786512 -324 13 C-329.9952009 11.30135975 -333.62330715 8.13306789 -337 3 C-337 2.34 -337 1.68 -337 1 C-336.34 1 -335.68 1 -335 1 C-334.34 1.99 -333.68 2.98 -333 4 C-324.96610187 6.32560209 -316.26937811 5.99815796 -309 2 C-306.80281116 2.71260179 -305.61450567 3.38549433 -304 5 C-298.87580908 5.32263424 -294.01551286 5.09714344 -289 4 C-288.34 4.33 -287.68 4.66 -287 5 C-282.96622684 5.33355564 -282.96622684 5.33355564 -279 5 C-276.94729537 3.15811388 -276.94729537 3.15811388 -276 1 C-273.08482708 2.07401108 -271.22189824 2.77810176 -269 5 C-266.92645161 5.28103071 -266.92645161 5.28103071 -264.625 5.1875 C-263.46871094 5.17783203 -263.46871094 5.17783203 -262.2890625 5.16796875 C-260.00688335 5.07425362 -260.00688335 5.07425362 -257.8984375 4.42578125 C-256 4 -256 4 -253 5 C-250.19573548 5.08518867 -247.4170365 5.1158852 -244.61328125 5.09765625 C-243.79627243 5.0962413 -242.97926361 5.09482635 -242.13749695 5.09336853 C-239.52912732 5.08777294 -236.92084366 5.07522129 -234.3125 5.0625 C-232.54362103 5.05748443 -230.77474072 5.05292162 -229.00585938 5.04882812 C-224.67053981 5.03780496 -220.33528448 5.02054338 -216 5 C-216 4.34 -216 3.68 -216 3 C-214.02043559 3.14033111 -212.04134859 3.2874123 -210.0625 3.4375 C-208.96035156 3.51871094 -207.85820312 3.59992188 -206.72265625 3.68359375 C-204 4 -204 4 -203 5 C-201.06461065 5.09955104 -199.12544231 5.12968668 -197.1875 5.125 C-196.12917969 5.12757813 -195.07085937 5.13015625 -193.98046875 5.1328125 C-191.09377838 5.10427128 -191.09377838 5.10427128 -188.73828125 4.4296875 C-187 4 -187 4 -185 5 C-180.40596915 5.15062396 -176.49911942 4.92628929 -172 4 C-171.01 4.495 -171.01 4.495 -170 5 C-165.4865048 5.53151198 -162.10861497 5.86526046 -158.4375 3 C-157.963125 2.34 -157.48875 1.68 -157 1 C-156.401875 1.309375 -155.80375 1.61875 -155.1875 1.9375 C-152.91043228 3.10209704 -152.91043228 3.10209704 -150 4 C-150 4.66 -150 5.32 -150 6 C-138.35749248 6.71816125 -138.35749248 6.71816125 -128 2 C-127.01 2 -126.02 2 -125 2 C-125 2.66 -125 3.32 -125 4 C-124.34 4 -123.68 4 -123 4 C-123 4.66 -123 5.32 -123 6 C-116.46490401 5.43582448 -116.46490401 5.43582448 -110 4.375 C-108 4 -108 4 -106 5 C-104.23385438 5.09656047 -102.46409458 5.13075475 -100.6953125 5.1328125 C-99.10783203 5.13474609 -99.10783203 5.13474609 -97.48828125 5.13671875 C-96.37839844 5.13285156 -95.26851562 5.12898438 -94.125 5.125 C-93.02285156 5.12886719 -91.92070312 5.13273437 -90.78515625 5.13671875 C-89.72425781 5.13542969 -88.66335938 5.13414062 -87.5703125 5.1328125 C-86.11262451 5.13112061 -86.11262451 5.13112061 -84.62548828 5.12939453 C-82.24877238 5.01226049 -80.29042697 4.58120263 -78 4 C-75.74083886 4.23737563 -73.4894679 4.55679046 -71.25 4.9375 C-70.07953125 5.13214844 -68.9090625 5.32679688 -67.703125 5.52734375 C-66.36507812 5.76130859 -66.36507812 5.76130859 -65 6 C-65 5.34 -65 4.68 -65 4 C-61.125 4.875 -61.125 4.875 -60 6 C-58.20534711 6.09970294 -56.40679416 6.13080581 -54.609375 6.1328125 C-52.95615234 6.13474609 -52.95615234 6.13474609 -51.26953125 6.13671875 C-50.10808594 6.13285156 -48.94664062 6.12898438 -47.75 6.125 C-46.60402344 6.12886719 -45.45804687 6.13273437 -44.27734375 6.13671875 C-43.17003906 6.13542969 -42.06273437 6.13414062 -40.921875 6.1328125 C-39.90706055 6.13168457 -38.89224609 6.13055664 -37.84667969 6.12939453 C-34.98839917 6.07293843 -34.98839917 6.07293843 -32.19238281 5.42919922 C-31.46889648 5.28756348 -30.74541016 5.14592773 -30 5 C-29.67 5.33 -29.34 5.66 -29 6 C-27.14630389 6.08737645 -25.28932459 6.10698153 -23.43359375 6.09765625 C-22.30888672 6.09443359 -21.18417969 6.09121094 -20.02539062 6.08789062 C-18.84138672 6.07951172 -17.65738281 6.07113281 -16.4375 6.0625 C-15.24962891 6.05798828 -14.06175781 6.05347656 -12.83789062 6.04882812 C-9.89187774 6.03699675 -6.94596319 6.02051287 -4 6 C-4 5.34 -4 4.68 -4 4 C-2.70766393 2.62689293 -1.37562854 1.28965176 0 0 Z " fill="#A04225" transform="translate(505,324)"/>
<path d="M0 0 C2.97 0 5.94 0 9 0 C9.45375 1.051875 9.9075 2.10375 10.375 3.1875 C10.78685547 4.14076172 10.78685547 4.14076172 11.20703125 5.11328125 C11.86706264 6.68370076 12.47198692 8.27714107 13.0625 9.875 C13.80419312 12.16785238 13.80419312 12.16785238 16 13 C16.103125 12.29875 16.20625 11.5975 16.3125 10.875 C17.32785308 6.62897801 18.89882715 3.10117285 22 0 C25.4375 -0.375 25.4375 -0.375 29 0 C31.17062727 2.15101317 31.93169483 3.5114309 32.35644531 6.54956055 C32.34709961 7.48582275 32.33775391 8.42208496 32.328125 9.38671875 C32.32296875 10.40701172 32.3178125 11.42730469 32.3125 12.47851562 C32.291875 13.53748047 32.27125 14.59644531 32.25 15.6875 C32.24484375 16.75806641 32.2396875 17.82863281 32.234375 18.93164062 C32.15407791 26.84592209 32.15407791 26.84592209 31 28 C27.5 28.125 27.5 28.125 24 28 C23 27 23 27 22.90234375 24.49609375 C22.91974609 22.98208984 22.91974609 22.98208984 22.9375 21.4375 C22.94652344 20.42558594 22.95554687 19.41367187 22.96484375 18.37109375 C22.97644531 17.58863281 22.98804688 16.80617188 23 16 C22.34 16 21.68 16 21 16 C20.731875 16.9075 20.46375 17.815 20.1875 18.75 C19.10423706 21.71471963 18.01640543 23.6169754 16 26 C13.75 25.9375 13.75 25.9375 11 25 C8.9101187 22.34257905 7 19.46449449 7 16 C6.34 16 5.68 16 5 16 C5 19.96 5 23.92 5 28 C3.02 28 1.04 28 -1 28 C-2 27 -2 27 -2.11352539 24.59155273 C-2.10828857 23.54942627 -2.10305176 22.5072998 -2.09765625 21.43359375 C-2.09443359 20.30888672 -2.09121094 19.18417969 -2.08789062 18.02539062 C-2.07951172 16.84138672 -2.07113281 15.65738281 -2.0625 14.4375 C-2.05798828 13.24962891 -2.05347656 12.06175781 -2.04882812 10.83789062 C-2.03699675 7.89187774 -2.02051287 4.94596319 -2 2 C-1.34 2 -0.68 2 0 2 C0 1.34 0 0.68 0 0 Z " fill="#FEF9F2" transform="translate(281,297)"/>
<path d="M0 0 C8.86395339 0.0147864 8.86395339 0.0147864 12.8125 2.5 C15.3125 5.4375 15.3125 5.4375 15.875 9 C15.38917754 11.96891501 14.91669183 13.93095027 13.3125 16.4375 C13.9725 17.0975 14.6325 17.7575 15.3125 18.4375 C15.54296875 20.56640625 15.54296875 20.56640625 15.5 23 C15.49355469 23.80566406 15.48710937 24.61132812 15.48046875 25.44140625 C15.3125 27.4375 15.3125 27.4375 14.3125 28.4375 C12.78730724 28.34812197 11.26568071 28.19212854 9.75 28 C8.92371094 27.89816406 8.09742188 27.79632813 7.24609375 27.69140625 C6.60800781 27.60761719 5.96992188 27.52382813 5.3125 27.4375 C4.9825 24.7975 4.6525 22.1575 4.3125 19.4375 C2.9925 19.4375 1.6725 19.4375 0.3125 19.4375 C0.35375 20.55125 0.395 21.665 0.4375 22.8125 C0.3125 26.4375 0.3125 26.4375 -1.6875 28.4375 C-5.25 28.625 -5.25 28.625 -8.6875 28.4375 C-11.27705157 25.84794843 -9.87308792 18.48572397 -9.875 15 C-9.88724609 13.82888672 -9.89949219 12.65777344 -9.91210938 11.45117188 C-9.91404297 10.33419922 -9.91597656 9.21722656 -9.91796875 8.06640625 C-9.92207764 7.03588135 -9.92618652 6.00535645 -9.93041992 4.94360352 C-9.37092448 -0.8284776 -4.64440403 0.01302851 0 0 Z " fill="#FEF7EE" transform="translate(392.6875,296.5625)"/>
<path d="M0 0 C3.1875 -0.3125 3.1875 -0.3125 7 0 C9.625 2.1875 9.625 2.1875 12 5 C12.928125 5.928125 13.85625 6.85625 14.8125 7.8125 C15.8953125 8.8953125 15.8953125 8.8953125 17 10 C17.09087891 9.04287109 17.09087891 9.04287109 17.18359375 8.06640625 C17.26738281 7.24011719 17.35117188 6.41382813 17.4375 5.5625 C17.51871094 4.73878906 17.59992188 3.91507812 17.68359375 3.06640625 C18 1 18 1 19 0 C21.4375 -0.1875 21.4375 -0.1875 24 0 C26 2 26 2 26.22705078 4.61376953 C26.21657715 5.69255371 26.20610352 6.77133789 26.1953125 7.8828125 C26.18886719 9.04941406 26.18242187 10.21601563 26.17578125 11.41796875 C26.15902344 12.64128906 26.14226562 13.86460937 26.125 15.125 C26.11597656 16.35605469 26.10695312 17.58710938 26.09765625 18.85546875 C26.07402548 21.90383815 26.04108054 24.95182382 26 28 C16.91340442 28.27859845 12.48752895 23.75816179 6 18 C6.01160156 18.63808594 6.02320313 19.27617187 6.03515625 19.93359375 C6.04417969 20.75988281 6.05320313 21.58617187 6.0625 22.4375 C6.07410156 23.26121094 6.08570313 24.08492188 6.09765625 24.93359375 C6 27 6 27 5 28 C3.00041636 28.04080783 0.99954746 28.04254356 -1 28 C-1.02891949 23.70834738 -1.04677118 19.41671964 -1.0625 15.125 C-1.07087891 13.90167969 -1.07925781 12.67835938 -1.08789062 11.41796875 C-1.09111328 10.25136719 -1.09433594 9.08476562 -1.09765625 7.8828125 C-1.10289307 6.80402832 -1.10812988 5.72524414 -1.11352539 4.61376953 C-1 2 -1 2 0 0 Z " fill="#FEF8EF" transform="translate(219,297)"/>
<path d="M0 0 C3.39401785 1.62322593 5.97340677 3.57436555 8.17578125 6.6328125 C9.44154935 10.26814648 9.28845446 13.80519004 9.25 17.625 C9.25773437 18.40101563 9.26546875 19.17703125 9.2734375 19.9765625 C9.25340266 25.74659734 9.25340266 25.74659734 7 28 C3.4375 28.1875 3.4375 28.1875 0 28 C-1 27 -1 27 -1.0625 24.4375 C-1.041875 23.633125 -1.02125 22.82875 -1 22 C-3.31 22 -5.62 22 -8 22 C-7.979375 22.804375 -7.95875 23.60875 -7.9375 24.4375 C-8 27 -8 27 -9 28 C-11.9375 28.1875 -11.9375 28.1875 -15 28 C-17.90877977 25.09122023 -17.30050485 22.8628626 -17.3125 18.8125 C-17.26076798 11.6505832 -16.690364 7.08600576 -11.875 1.5625 C-7.83021177 -0.63575447 -4.50367939 -0.90073588 0 0 Z " fill="#FEF9F2" transform="translate(430,297)"/>
<path d="M0 0 C2.81771046 1.23078431 5.09721456 2.56488768 7 5 C8.20660495 9.72240213 8.15144042 14.46949714 8.125 19.3125 C8.13080078 20.40401367 8.13080078 20.40401367 8.13671875 21.51757812 C8.12673611 26.87326389 8.12673611 26.87326389 7 28 C3.5 28.125 3.5 28.125 0 28 C-1 27 -1 27 -1.0625 24.4375 C-1.041875 23.633125 -1.02125 22.82875 -1 22 C-3.31 22 -5.62 22 -8 22 C-7.979375 22.804375 -7.95875 23.60875 -7.9375 24.4375 C-8 27 -8 27 -9 28 C-10.99958364 28.04080783 -13.00045254 28.04254356 -15 28 C-17.81201654 19.56395037 -17.93455905 12.10805894 -14 4 C-10.14906129 -0.64377904 -5.69276852 -1.11718154 0 0 Z " fill="#FEFCF8" transform="translate(336,297)"/>
<path d="M0 0 C1.5778125 0.00966797 1.5778125 0.00966797 3.1875 0.01953125 C6.57771505 0.22200243 8.49031888 0.79431742 11.1875 2.875 C13 5.1875 13 5.1875 13.4375 8.1875 C12.9445448 11.56776421 12.62541413 12.98553976 10 15.1875 C6.3125 15.4375 6.3125 15.4375 3 15.1875 C2.15545644 11.80932575 1.89155081 9.51284757 3 6.1875 C1.02463255 6.53536708 1.02463255 6.53536708 -1 7.1875 C-2.50934217 10.20618434 -2.17510672 12.86047229 -2 16.1875 C-1.34 17.1775 -0.68 18.1675 0 19.1875 C4.34586828 19.58257893 6.32003497 19.64081002 10 17.1875 C11.32 17.1875 12.64 17.1875 14 17.1875 C14.3125 20.5 14.3125 20.5 14 24.1875 C11.60259082 26.14328117 10.12413392 27.1875 7 27.1875 C7 27.8475 7 28.5075 7 29.1875 C-3.30332326 30.10109517 -3.30332326 30.10109517 -7.28515625 27.95703125 C-10.69584907 25.02426991 -13.73834848 22.09617896 -14.37109375 17.48046875 C-14.57244355 8.06440437 -14.57244355 8.06440437 -11.6875 4.5625 C-7.52864115 0.88722939 -5.486895 -0.0739655 0 0 Z " fill="#FEF7ED" transform="translate(182,296.8125)"/>
<path d="M0 0 C3.90575397 3.27579365 3.90575397 3.27579365 4.25 7.0625 C3.9375 10.625 3.9375 10.625 2.875 12.5625 C-0.07418691 14.17979605 -2.77117559 13.81130138 -6.0625 13.625 C-6.90704356 10.24682575 -7.17094919 7.95034757 -6.0625 4.625 C-8.03786745 4.97286708 -8.03786745 4.97286708 -10.0625 5.625 C-11.23301429 7.96602859 -11.2617246 9.51852953 -11.3125 12.125 C-11.33828125 12.9190625 -11.3640625 13.713125 -11.390625 14.53125 C-11.28234375 15.2221875 -11.1740625 15.913125 -11.0625 16.625 C-7.38253497 19.07831002 -5.40836828 19.02007893 -1.0625 18.625 C-0.4025 17.635 0.2575 16.645 0.9375 15.625 C2.5875 15.955 4.2375 16.285 5.9375 16.625 C5.63850785 20.21290575 5.16763399 21.40666776 2.5 23.9375 C-0.0625 25.625 -0.0625 25.625 -2.0625 25.625 C-2.0625 26.285 -2.0625 26.945 -2.0625 27.625 C-13.88239654 28.48567208 -13.88239654 28.48567208 -17.6875 25.375 C-21.51445048 20.94379418 -22.36947494 18.07166777 -22.4375 12.1875 C-22.46585937 11.07503906 -22.49421875 9.96257812 -22.5234375 8.81640625 C-21.96245492 4.93231502 -20.8225017 3.37047538 -18.0625 0.625 C-12.9291258 -2.84973796 -5.4690124 -2.45547496 0 0 Z " fill="#FEF8F0" transform="translate(372.0625,298.375)"/>
<path d="M0 0 C1.61358398 -0.01836914 1.61358398 -0.01836914 3.25976562 -0.03710938 C4.28650391 -0.03904297 5.31324219 -0.04097656 6.37109375 -0.04296875 C7.79119751 -0.04913208 7.79119751 -0.04913208 9.23999023 -0.05541992 C11.5625 0.1875 11.5625 0.1875 13.5625 2.1875 C14.125 4.875 14.125 4.875 13.5625 8.1875 C10.22210914 12.53188474 5.8278229 15.80033181 1.5625 19.1875 C1.2325 19.8475 0.9025 20.5075 0.5625 21.1875 C1.40554688 21.16429687 2.24859375 21.14109375 3.1171875 21.1171875 C4.76074219 21.09011719 4.76074219 21.09011719 6.4375 21.0625 C8.07332031 21.02769531 8.07332031 21.02769531 9.7421875 20.9921875 C12.5625 21.1875 12.5625 21.1875 14.5625 23.1875 C14.1875 25.8125 14.1875 25.8125 13.5625 28.1875 C9.60422765 28.24535647 5.6460633 28.28104717 1.6875 28.3125 C0.55957031 28.32925781 -0.56835938 28.34601563 -1.73046875 28.36328125 C-3.34501953 28.37294922 -3.34501953 28.37294922 -4.9921875 28.3828125 C-6.48468018 28.39852295 -6.48468018 28.39852295 -8.00732422 28.41455078 C-10.4375 28.1875 -10.4375 28.1875 -12.4375 26.1875 C-13.00554535 21.84453507 -12.95341617 19.88712802 -10.3203125 16.31640625 C-9.41023438 15.46949219 -8.50015625 14.62257813 -7.5625 13.75 C-6.20511719 12.45255859 -6.20511719 12.45255859 -4.8203125 11.12890625 C-2.4375 9.1875 -2.4375 9.1875 -0.4375 9.1875 C-0.4375 8.5275 -0.4375 7.8675 -0.4375 7.1875 C-1.05238281 7.19910156 -1.66726563 7.21070313 -2.30078125 7.22265625 C-3.10902344 7.23167969 -3.91726563 7.24070312 -4.75 7.25 C-5.95076172 7.26740234 -5.95076172 7.26740234 -7.17578125 7.28515625 C-9.4375 7.1875 -9.4375 7.1875 -12.4375 6.1875 C-12.480221 4.52138095 -12.47813832 2.85367115 -12.4375 1.1875 C-9.96151267 -1.28848733 -3.32889842 0.0019874 0 0 Z " fill="#FEF9F2" transform="translate(456.4375,296.8125)"/>
<path d="M0 0 C2.03125 -0.37231445 2.03125 -0.37231445 4.5 -0.36328125 C5.386875 -0.36263672 6.27375 -0.36199219 7.1875 -0.36132812 C8.5796875 -0.3371582 8.5796875 -0.3371582 10 -0.3125 C10.928125 -0.31572266 11.85625 -0.31894531 12.8125 -0.32226562 C19.73305861 -0.26694139 19.73305861 -0.26694139 22 2 C22 3.32 22 4.64 22 6 C19.35541621 7.32229189 17.32238699 7.09677194 14.375 7.0625 C13.37210937 7.05347656 12.36921875 7.04445313 11.3359375 7.03515625 C10.56507813 7.02355469 9.79421875 7.01195312 9 7 C9 8.65 9 10.3 9 12 C12.3 12 15.6 12 19 12 C19.33 13.65 19.66 15.3 20 17 C16.37 17 12.74 17 9 17 C9 18.65 9 20.3 9 22 C12.96 22 16.92 22 21 22 C21.33 23.65 21.66 25.3 22 27 C19.1800613 29.8199387 17.07095841 29.28962838 13.21679688 29.32226562 C12.34087891 29.31904297 11.46496094 29.31582031 10.5625 29.3125 C9.69044922 29.32861328 8.81839844 29.34472656 7.91992188 29.36132812 C6.66211914 29.36229492 6.66211914 29.36229492 5.37890625 29.36328125 C4.6113501 29.36626221 3.84379395 29.36924316 3.05297852 29.37231445 C1 29 1 29 -0.75097656 27.8034668 C-2.43783037 25.36781607 -2.37274532 23.72994761 -2.36328125 20.78125 C-2.36263672 19.76675781 -2.36199219 18.75226563 -2.36132812 17.70703125 C-2.34521484 16.64871094 -2.32910156 15.59039062 -2.3125 14.5 C-2.31572266 13.44167969 -2.31894531 12.38335937 -2.32226562 11.29296875 C-2.26710975 3.40066463 -2.26710975 3.40066463 0 0 Z " fill="#FEF6EA" transform="translate(252,297)"/>
<path d="M0 0 C1.23157837 0.00616333 1.23157837 0.00616333 2.48803711 0.01245117 C3.37942383 0.01438477 4.27081055 0.01631836 5.18920898 0.01831055 C6.1218457 0.03055664 7.05448242 0.04280273 8.01538086 0.05541992 C9.42013672 0.05638672 9.42013672 0.05638672 10.85327148 0.05737305 C17.81268862 0.10272768 17.81268862 0.10272768 18.95288086 1.24291992 C19.07788086 3.74291992 19.07788086 3.74291992 18.95288086 6.24291992 C17.95288086 7.24291992 17.95288086 7.24291992 15.23022461 7.34057617 C13.57700195 7.32317383 13.57700195 7.32317383 11.89038086 7.30541992 C10.23329102 7.29188477 10.23329102 7.29188477 8.54272461 7.27807617 C7.68807617 7.26647461 6.83342773 7.25487305 5.95288086 7.24291992 C5.95288086 8.89291992 5.95288086 10.54291992 5.95288086 12.24291992 C9.25288086 12.24291992 12.55288086 12.24291992 15.95288086 12.24291992 C16.28288086 13.89291992 16.61288086 15.54291992 16.95288086 17.24291992 C13.32288086 17.24291992 9.69288086 17.24291992 5.95288086 17.24291992 C5.95288086 18.89291992 5.95288086 20.54291992 5.95288086 22.24291992 C9.91288086 22.24291992 13.87288086 22.24291992 17.95288086 22.24291992 C18.28288086 23.89291992 18.61288086 25.54291992 18.95288086 27.24291992 C16.65278313 29.54301765 11.10497419 28.42829357 8.01538086 28.43041992 C7.08274414 28.44266602 6.15010742 28.45491211 5.18920898 28.4675293 C4.29782227 28.46946289 3.40643555 28.47139648 2.48803711 28.47338867 C1.66698486 28.47749756 0.84593262 28.48160645 0 28.48583984 C-2.04711914 28.24291992 -2.04711914 28.24291992 -4.04711914 26.24291992 C-4.3059082 23.84448242 -4.3059082 23.84448242 -4.31274414 20.86791992 C-4.31532227 19.80057617 -4.31790039 18.73323242 -4.32055664 17.63354492 C-4.30895508 15.95518555 -4.30895508 15.95518555 -4.29711914 14.24291992 C-4.30485352 13.12401367 -4.31258789 12.00510742 -4.32055664 10.85229492 C-4.31797852 9.78495117 -4.31540039 8.71760742 -4.31274414 7.61791992 C-4.31048828 6.6356543 -4.30823242 5.65338867 -4.3059082 4.64135742 C-3.9705705 1.53347293 -3.1788331 0.37721395 0 0 Z " fill="#FEFAF3" transform="translate(480.047119140625,296.757080078125)"/>
<path d="M0 0 C3.125 2.4375 3.125 2.4375 5 5 C5.33 5.33 5.66 5.66 6 6 C6.57413536 10.55543464 6.63047301 13.97819891 4.1875 17.9375 C-0.13967402 22.01740693 -2.8858111 22.43291526 -8.61328125 22.32421875 C-11 22 -11 22 -13.625 20.1875 C-15 18 -15 18 -15 15 C-15.66 15 -16.32 15 -17 15 C-17.50717202 10.18186579 -17.56136987 7.02671166 -14.6875 3 C-10.55681706 -1.28804229 -5.57455373 -1.24727458 0 0 Z " fill="#FEFCF6" transform="translate(78,284)"/>
<path d="M0 0 C3.64355647 1.61935843 6.12645605 3.45012726 8 7 C8.56172694 11.33332214 8.29780107 13.45574287 6.1875 17.3125 C4 20 4 20 1 22 C-4.19296559 22.48990241 -7.66331712 21.95682924 -12 19 C-14.41259871 15.65349212 -15.26189069 13.00200255 -15.0625 8.9375 C-14.45712531 5.5821786 -13.80406392 4.77061142 -11.4375 2 C-6.97827601 -0.59445759 -5.08808639 -0.64610621 0 0 Z " fill="#FEFCF9" transform="translate(110,278)"/>
<path d="M0 0 C3.12068856 1.79273598 4.54965052 3.24259405 6.375 6.3125 C7.22094728 9.95007329 6.96685978 12.39039015 6 16 C3.5 18.875 3.5 18.875 1 21 C0.67 21.33 0.34 21.66 0 22 C-4.37147919 22.55095089 -7.95162326 22.51303542 -11.9375 20.5625 C-14.82607081 16.9736696 -15.82458756 13.59261668 -16 9 C-14.89350537 5.68051611 -13.6418841 3.7406355 -11.375 1.125 C-7.62666215 -0.65052846 -4.0643668 -0.65320181 0 0 Z " fill="#FFFDFA" transform="translate(127,307)"/>
<path d="M0 0 C4.90162429 0.39529228 6.90789697 1.43440564 10.875 4.3125 C12.86626279 7.38236346 12.87806133 9.14106578 12.8125 12.8125 C11.70204023 16.95821647 10.10438099 18.56752616 6.875 21.3125 C6.545 21.6425 6.215 21.9725 5.875 22.3125 C1.41508824 22.87459632 -2.08927615 22.88545362 -6.0625 20.6875 C-9.23029818 17.0397324 -10.16069431 14.06152106 -10.0625 9.25 C-8.88102133 5.54803349 -7.01811404 3.84397478 -4.125 1.3125 C-3.125 0.3125 -3.125 0.3125 0 0 Z " fill="#FFFDFB" transform="translate(98.125,332.6875)"/>
<path d="M0 0 C3 0.25 3 0.25 5 2.25 C5.25878906 4.54077148 5.25878906 4.54077148 5.265625 7.37109375 C5.26820313 8.38880859 5.27078125 9.40652344 5.2734375 10.45507812 C5.26570312 11.52177734 5.25796875 12.58847656 5.25 13.6875 C5.25773438 14.75033203 5.26546875 15.81316406 5.2734375 16.90820312 C5.27085937 17.92720703 5.26828125 18.94621094 5.265625 19.99609375 C5.26336914 20.93122803 5.26111328 21.8663623 5.25878906 22.82983398 C5 25.25 5 25.25 3 28.25 C0 28.5625 0 28.5625 -3 28.25 C-5.60868369 25.64131631 -5.25728913 24.50467636 -5.265625 20.875 C-5.26820313 19.80765625 -5.27078125 18.7403125 -5.2734375 17.640625 C-5.26183594 15.96226562 -5.26183594 15.96226562 -5.25 14.25 C-5.25773438 13.13109375 -5.26546875 12.0121875 -5.2734375 10.859375 C-5.27085937 9.79203125 -5.26828125 8.7246875 -5.265625 7.625 C-5.26336914 6.64273437 -5.26111328 5.66046875 -5.25878906 4.6484375 C-4.85148088 0.87353604 -3.69139246 0.30761604 0 0 Z " fill="#FEFBF6" transform="translate(207,296.75)"/>
<path d="M0 0 C0.66 0 1.32 0 2 0 C2.66 0.99 3.32 1.98 4 3 C12.03389813 5.32560209 20.73062189 4.99815796 28 1 C30.375 1.8125 30.375 1.8125 32 3 C32 5.25 32 5.25 31 8 C26.37184397 11.78227895 21.21715368 12.5982181 15.38671875 12.3125 C8.77485943 11.44679011 5.15051837 8.57961108 1.06640625 3.62109375 C0 2 0 2 0 0 Z " fill="#9A3A20" transform="translate(168,325)"/>
<path d="M0 0 C0.85078125 0.48919922 0.85078125 0.48919922 1.71875 0.98828125 C4.20166401 2.08943661 5.80398946 2.23828102 8.5 2.1875 C9.2528125 2.18105469 10.005625 2.17460937 10.78125 2.16796875 C13.0031679 2.07077012 13.0031679 2.07077012 15.09375 1.42578125 C17 1 17 1 20 2 C21.9920303 2.08291953 23.98673713 2.10738177 25.98046875 2.09765625 C27.72553711 2.09282227 27.72553711 2.09282227 29.50585938 2.08789062 C31.32827148 2.07532227 31.32827148 2.07532227 33.1875 2.0625 C35.02731445 2.05573242 35.02731445 2.05573242 36.90429688 2.04882812 C39.93624668 2.03703065 42.96809906 2.02056921 46 2 C40.69573915 5.5361739 35.35235321 5.12967778 29.1875 5.0625 C28.00510742 5.05573242 28.00510742 5.05573242 26.79882812 5.04882812 C24.86585239 5.03711312 22.93291607 5.01917998 21 5 C20.67 5.66 20.34 6.32 20 7 C19.34 7 18.68 7 18 7 C17.67 7.99 17.34 8.98 17 10 C11.59465589 10.67566801 7.94082511 10.45019529 3.4375 7.1875 C1.43359375 5.60546875 1.43359375 5.60546875 0 4 C0 2.66666667 0 1.33333333 0 0 Z " fill="#A94A22" transform="translate(232,327)"/>
<path d="M0 0 C0.6875 2.3125 0.6875 2.3125 1 5 C-0.125 6.625 -0.125 6.625 -2 8 C-2.66 8.556875 -3.32 9.11375 -4 9.6875 C-9.67389424 12.16982873 -16.33553165 11.92703149 -22.125 9.75 C-25 8 -25 8 -25.6796875 5.890625 C-25.78539062 5.26671875 -25.89109375 4.6428125 -26 4 C-24.92621094 4.04640625 -23.85242188 4.0928125 -22.74609375 4.140625 C-14.27499556 4.39500637 -7.1619677 0 0 0 Z " fill="#9B3B20" transform="translate(380,326)"/>
<path d="M0 0 C1.32 0 2.64 0 4 0 C4 2.64 4 5.28 4 8 C9.32170494 8.29562367 9.32170494 8.29562367 14 6 C13.67 6.99 13.34 7.98 13 9 C13.66 9.66 14.32 10.32 15 11 C14.38125 11.103125 13.7625 11.20625 13.125 11.3125 C10.63473516 11.87525373 10.63473516 11.87525373 9 15 C5.46991807 15.39223133 2.8903812 15.34245431 -0.4375 14.0625 C-2.64493213 11.14868959 -2.39547534 8.72852041 -2.3359375 5.15625 C-2 3 -2 3 0 0 Z " fill="#FEAE40" transform="translate(362,303)"/>
<path d="M0 0 C0.33 0.66 0.66 1.32 1 2 C0.01 2 -0.98 2 -2 2 C-2.33 2.99 -2.66 3.98 -3 5 C-10.92 5 -18.84 5 -27 5 C-27 3.68 -27 2.36 -27 1 C-25.83082031 0.93941406 -24.66164062 0.87882812 -23.45703125 0.81640625 C-21.90884386 0.73195966 -20.36066732 0.64731375 -18.8125 0.5625 C-18.04357422 0.52318359 -17.27464844 0.48386719 -16.48242188 0.44335938 C-1.31800561 -0.40272394 -1.31800561 -0.40272394 0 0 Z " fill="#902B14" transform="translate(280,331)"/>
<path d="M0 0 C1.32 0 2.64 0 4 0 C4 2.64 4 5.28 4 8 C8.65052872 8.26932521 8.65052872 8.26932521 13 7 C13.33 8.32 13.66 9.64 14 11 C9.4988362 13.63482759 6.22565403 14.69018072 1 14 C-0.9375 12.4375 -0.9375 12.4375 -2 10 C-2.38503486 5.61060262 -2.47342266 3.71013399 0 0 Z " fill="#FEAB38" transform="translate(181,303)"/>
<path d="M0 0 C3 1 3 1 4.1875 3.0625 C4.455625 3.701875 4.72375 4.34125 5 5 C4.34 5 3.68 5 3 5 C2.566875 6.2065625 2.566875 6.2065625 2.125 7.4375 C1 10 1 10 -1 11 C-7.53333333 11.23333333 -7.53333333 11.23333333 -10 10 C-10 9.34 -10 8.68 -10 8 C-10.66 8 -11.32 8 -12 8 C-12 7.34 -12 6.68 -12 6 C-9.03 6 -6.06 6 -3 6 C-2.34 4.68 -1.68 3.36 -1 2 C-0.67 1.34 -0.34 0.68 0 0 Z " fill="#983315" transform="translate(229,325)"/>
<path d="M0 0 C2.5 0.125 2.5 0.125 3.5 1.125 C3.57179964 2.64428038 3.58392007 4.16667482 3.5625 5.6875 C3.55347656 6.51378906 3.54445313 7.34007812 3.53515625 8.19140625 C3.51775391 9.14853516 3.51775391 9.14853516 3.5 10.125 C1.19 10.125 -1.12 10.125 -3.5 10.125 C-3.52689216 8.64593108 -3.54634621 7.16672517 -3.5625 5.6875 C-3.57410156 4.86378906 -3.58570313 4.04007812 -3.59765625 3.19140625 C-3.4527802 0.12582896 -3.07795841 0.15389792 0 0 Z " fill="#FEB653" transform="translate(331.5,303.875)"/>
<path d="M0 0 C1.88343932 3.76687864 2.22057835 5.02958963 2 9 C4.97 9 7.94 9 11 9 C7.5647952 11.29013653 6.014669 11.17842973 2 11 C1.67 13.31 1.34 15.62 1 18 C-0.4606285 15.35261084 -1 14.10551666 -1 11 C-2.98 11 -4.96 11 -7 11 C-7.33 10.34 -7.66 9.68 -8 9 C-5.69 9 -3.38 9 -1 9 C-0.67 6.03 -0.34 3.06 0 0 Z " fill="#FED36F" transform="translate(68,249)"/>
<path d="M0 0 C1.67542976 0.28604898 3.34385343 0.61781233 5 1 C5 3.97 5 6.94 5 10 C3.02 10 1.04 10 -1 10 C-1.02689216 8.52093108 -1.04634621 7.04172517 -1.0625 5.5625 C-1.07410156 4.73878906 -1.08570313 3.91507812 -1.09765625 3.06640625 C-1 1 -1 1 0 0 Z " fill="#FEAF43" transform="translate(424,304)"/>
<path d="M0 0 C0.66 0 1.32 0 2 0 C2.1953125 6.0546875 2.1953125 6.0546875 2 8 C1.34 8.66 0.68 9.32 0 10 C-0.64767793 12.57061311 -0.64767793 12.57061311 -1 15 C-1.66 14.67 -2.32 14.34 -3 14 C-3.08153933 12.41753293 -3.13943557 10.83383727 -3.1875 9.25 C-3.22230469 8.36828125 -3.25710938 7.4865625 -3.29296875 6.578125 C-2.94589665 3.52389051 -2.11745198 2.19435701 0 0 Z " fill="#9E3E1F" transform="translate(505,302)"/>
<path d="M0 0 C2.29225435 0.11371497 4.58382388 0.24130964 6.875 0.375 C8.15117187 0.44460938 9.42734375 0.51421875 10.7421875 0.5859375 C14 1 14 1 16 3 C15.625 5.625 15.625 5.625 15 8 C14.67 8 14.34 8 14 8 C14 6.35 14 4.7 14 3 C9.38 3 4.76 3 0 3 C0 2.01 0 1.02 0 0 Z " fill="#FEE0B6" transform="translate(455,317)"/>
<path d="M0 0 C0.33 0.66 0.66 1.32 1 2 C0.0625 4.125 0.0625 4.125 -1 6 C-0.01 7.32 0.98 8.64 2 10 C-0.31 9.34 -2.62 8.68 -5 8 C-5 8.66 -5 9.32 -5 10 C-5.66 9.67 -6.32 9.34 -7 9 C-6.773125 8.4225 -6.54625 7.845 -6.3125 7.25 C-5.73494807 4.87827523 -5.73494807 4.87827523 -7.4375 2.75 C-7.953125 2.1725 -8.46875 1.595 -9 1 C-7.02 1.66 -5.04 2.32 -3 3 C-2.01 2.01 -1.02 1.02 0 0 Z " fill="#FFB549" transform="translate(136,360)"/>
<path d="M0 0 C0.94875 0.04125 1.8975 0.0825 2.875 0.125 C2.25625 0.41375 1.6375 0.7025 1 1 C-1.25825765 2.06220042 -1.25825765 2.06220042 -3.125 4.125 C-3.49551993 6.4495339 -3.49551993 6.4495339 -3.5390625 9.1328125 C-3.57773438 10.11894531 -3.61640625 11.10507812 -3.65625 12.12109375 C-3.6871875 13.15363281 -3.718125 14.18617188 -3.75 15.25 C-3.78867188 16.29027344 -3.82734375 17.33054687 -3.8671875 18.40234375 C-3.96164766 20.97638311 -4.04721214 23.55041155 -4.125 26.125 C-4.455 26.125 -4.785 26.125 -5.125 26.125 C-5.18285647 22.16672765 -5.21854717 18.2085633 -5.25 14.25 C-5.26675781 13.12207031 -5.28351563 11.99414062 -5.30078125 10.83203125 C-5.30722656 9.75566406 -5.31367188 8.67929687 -5.3203125 7.5703125 C-5.33078613 6.57531738 -5.34125977 5.58032227 -5.35205078 4.55517578 C-4.98796966 0.65833338 -3.8055394 0.15222158 0 0 Z " fill="#FFECD3" transform="translate(207.125,296.875)"/>
<path d="M0 0 C0 0.99 0 1.98 0 3 C0.66 3.66 1.32 4.32 2 5 C1.38125 5.103125 0.7625 5.20625 0.125 5.3125 C-2.36526484 5.87525373 -2.36526484 5.87525373 -4 9 C-7.625 9.1875 -7.625 9.1875 -11 9 C-11 8.67 -11 8.34 -11 8 C-10.030625 7.87625 -9.06125 7.7525 -8.0625 7.625 C-7.051875 7.41875 -6.04125 7.2125 -5 7 C-4.67 6.34 -4.34 5.68 -4 5 C-5.32 4.67 -6.64 4.34 -8 4 C-8 3.67 -8 3.34 -8 3 C-6.865625 2.690625 -5.73125 2.38125 -4.5625 2.0625 C-1.21224901 1.37075469 -1.21224901 1.37075469 0 0 Z " fill="#FEC16C" transform="translate(375,309)"/>
<path d="M0 0 C0.66 0 1.32 0 2 0 C2.66 0.99 3.32 1.98 4 3 C5.91883745 3.59584217 5.91883745 3.59584217 8.1328125 3.73046875 C8.93847656 3.81103516 9.74414062 3.89160156 10.57421875 3.97460938 C11.41597656 4.04486328 12.25773438 4.11511719 13.125 4.1875 C13.97449219 4.26935547 14.82398438 4.35121094 15.69921875 4.43554688 C17.7983384 4.63602459 19.89905824 4.81961611 22 5 C22 5.33 22 5.66 22 6 C18.89614789 6.11613204 15.79285338 6.18722029 12.6875 6.25 C11.36588867 6.30027344 11.36588867 6.30027344 10.01757812 6.3515625 C3.50187213 6.45066069 3.50187213 6.45066069 0.89453125 4.109375 C0 2 0 2 0 0 Z " fill="#C86D28" transform="translate(168,325)"/>
<path d="M0 0 C1.65 0 3.3 0 5 0 C5 1.65 5 3.3 5 5 C3.35 5 1.7 5 0 5 C0 3.35 0 1.7 0 0 Z " fill="#FEAA37" transform="translate(393,303)"/>
<path d="M0 0 C0.495 0.309375 0.99 0.61875 1.5 0.9375 C4.97986781 2.41644382 8.24028509 2.62402851 12 3 C12 3.33 12 3.66 12 4 C9.36 4 6.72 4 4 4 C3.67 4.66 3.34 5.32 3 6 C1.5 4.6875 1.5 4.6875 0 3 C0 2.01 0 1.02 0 0 Z " fill="#BD5E20" transform="translate(232,327)"/>
<path d="M0 0 C-1.49097658 3.7952131 -3.75700849 5.61042731 -7 8 C-7 5 -7 5 -4.625 2.3125 C-2 0 -2 0 0 0 Z " fill="#FEB249" transform="translate(173,294)"/>
<path d="M0 0 C0.66 1.32 1.32 2.64 2 4 C-0.78823655 5.0326802 -1.8677274 5.04509293 -4.75 4.0625 C-5.4925 3.711875 -6.235 3.36125 -7 3 C-7 2.67 -7 2.34 -7 2 C-4.69 1.34 -2.38 0.68 0 0 Z " fill="#FEBA5D" transform="translate(193,310)"/>
<path d="M0 0 C-1.39332574 3.36720387 -2.9789286 4.9859524 -6 7 C-5.37162381 3.35541809 -4.14650034 0 0 0 Z " fill="#FEEED8" transform="translate(327,298)"/>
</svg>
